<svg width="471" height="170" viewBox="0 0 471 170" fill="none" xmlns="http://www.w3.org/2000/svg">
<path d="M235.5 133C272.227 133 302 103.227 302 66.4999C302 29.773 272.227 0 235.5 0C198.773 0 169 29.773 169 66.4999C169 103.227 198.773 133 235.5 133Z" fill="#FD5959"/>
<path d="M235.5 112.013C266.432 112.013 291.507 86.9382 291.507 56.0066C291.507 25.075 266.432 0 235.5 0C204.569 0 179.494 25.075 179.494 56.0066C179.494 86.9382 204.569 112.013 235.5 112.013Z" fill="#FD5959"/>
<path d="M289.314 105.578C287.645 107.871 285.834 110.054 283.894 112.111C281.052 115.124 277.933 117.871 274.579 120.314L264.943 110.678C262.907 108.645 261.889 105.977 261.889 103.309C261.889 100.643 262.907 97.9777 264.943 95.9422C269.011 91.8734 275.61 91.8734 279.679 95.9422L289.314 105.578Z" fill="#484B7F"/>
<path d="M274.577 120.315C276.871 118.646 279.053 116.835 281.111 114.895L270.918 104.702C267.914 101.698 267.129 97.314 268.565 93.5874C267.243 94.095 266.006 94.8766 264.942 95.9435C262.906 97.9764 261.891 100.645 261.891 103.313C261.891 105.978 262.906 108.644 264.942 110.679L274.577 120.315Z" fill="#343A6E"/>
<path d="M220.655 103.311C249.184 103.311 272.311 80.184 272.311 51.6555C272.311 23.1269 249.184 0 220.655 0C192.127 0 169 23.1269 169 51.6555C169 80.184 192.127 103.311 220.655 103.311Z" fill="#343A6E"/>
<path d="M191.281 81.0272C192.513 82.2596 193.802 83.3968 195.143 84.4418C210.104 96.1106 231.213 96.1106 246.169 84.4393C247.507 83.3942 248.797 82.257 250.026 81.0275C266.249 64.8068 266.249 38.5054 250.026 22.2822C233.805 6.06154 207.504 6.06154 191.281 22.2822C175.06 38.5049 175.06 64.8066 191.281 81.0272Z" fill="#A9C7E0"/>
<path d="M208.57 81.0269C192.348 64.8053 192.348 38.5044 208.57 22.2827C214.469 16.3831 221.702 12.6318 229.298 11.0233C216.007 8.20901 201.604 11.9606 191.281 22.2827C175.06 38.5044 175.06 64.8053 191.281 81.0269C201.604 91.3493 216.007 95.1011 229.298 92.2863C221.702 90.6781 214.469 86.9265 208.57 81.0269Z" fill="#5897D1"/>
<path d="M266.811 78.5479L247.548 97.8112C244.992 100.367 244.992 104.511 247.548 107.068C250.104 109.624 254.248 109.624 256.804 107.068L276.067 87.8042C278.623 85.2481 278.623 81.104 276.067 78.5479C273.511 75.9918 269.367 75.9918 266.811 78.5479Z" fill="#484B7F"/>
<path d="M255.442 99.1738C252.886 96.6177 252.886 92.4736 255.442 89.9175L247.548 97.8115C244.992 100.368 244.992 104.512 247.548 107.068C250.104 109.624 254.248 109.624 256.804 107.068L264.698 99.1738C262.142 101.73 257.998 101.73 255.442 99.1738Z" fill="#343A6E"/>
<path d="M220.654 17.4305C229.796 17.4305 238.39 20.9903 244.854 27.4538C251.319 33.9187 254.879 42.5138 254.879 51.6558C254.879 60.7976 251.319 69.3917 244.854 75.8557C243.853 76.8569 242.78 77.8055 241.668 78.6742C235.714 83.3201 228.252 85.8794 220.656 85.8794C213.061 85.8794 205.598 83.3212 199.639 78.6737C198.529 77.8081 197.456 76.86 196.452 75.8557C189.989 69.3922 186.429 60.7978 186.429 51.6558C186.429 42.5136 189.989 33.9181 196.452 27.4544C202.917 20.9903 211.512 17.4305 220.654 17.4305ZM220.654 9.08545C209.759 9.08545 198.864 13.2412 190.551 21.553C173.928 38.1789 173.928 65.1333 190.551 81.7563C191.814 83.0193 193.135 84.1849 194.51 85.2557C202.175 91.2342 211.417 94.2241 220.656 94.2241C229.898 94.2241 239.138 91.2345 246.802 85.2528C248.173 84.1818 249.494 83.0162 250.755 81.7563C267.381 65.1333 267.381 38.1789 250.755 21.553C242.443 13.2412 231.549 9.08545 220.654 9.08545Z" fill="#F0F0F0"/>
<path d="M64.8604 161.966L65.1064 163.653L65.4668 162.133L67.998 153.203H69.4219L71.8916 162.133L72.2432 163.68L72.5156 161.957L74.502 153.203H76.1982L73.0957 166H71.5576L68.9209 156.675L68.7188 155.699L68.5166 156.675L65.7832 166H64.2451L61.1514 153.203H62.8389L64.8604 161.966ZM81.4893 166.176C80.2002 166.176 79.1514 165.754 78.3428 164.91C77.5342 164.061 77.1299 162.927 77.1299 161.509V161.21C77.1299 160.267 77.3086 159.426 77.666 158.688C78.0293 157.943 78.5332 157.363 79.1777 156.947C79.8281 156.525 80.5312 156.314 81.2871 156.314C82.5234 156.314 83.4844 156.722 84.1699 157.536C84.8555 158.351 85.1982 159.517 85.1982 161.034V161.711H78.7559C78.7793 162.648 79.0518 163.407 79.5732 163.987C80.1006 164.562 80.7686 164.849 81.5771 164.849C82.1514 164.849 82.6377 164.731 83.0361 164.497C83.4346 164.263 83.7832 163.952 84.082 163.565L85.0752 164.339C84.2783 165.563 83.083 166.176 81.4893 166.176ZM81.2871 157.65C80.6309 157.65 80.0801 157.891 79.6348 158.371C79.1895 158.846 78.9141 159.514 78.8086 160.375H83.5723V160.252C83.5254 159.426 83.3027 158.787 82.9043 158.336C82.5059 157.879 81.9668 157.65 81.2871 157.65ZM95.3672 164.849C95.9473 164.849 96.4541 164.673 96.8877 164.321C97.3213 163.97 97.5615 163.53 97.6084 163.003H99.1465C99.1172 163.548 98.9297 164.066 98.584 164.559C98.2383 165.051 97.7754 165.443 97.1953 165.736C96.6211 166.029 96.0117 166.176 95.3672 166.176C94.0723 166.176 93.041 165.745 92.2734 164.884C91.5117 164.017 91.1309 162.833 91.1309 161.333V161.061C91.1309 160.135 91.3008 159.312 91.6406 158.591C91.9805 157.87 92.4668 157.311 93.0996 156.912C93.7383 156.514 94.4912 156.314 95.3584 156.314C96.4248 156.314 97.3096 156.634 98.0127 157.272C98.7217 157.911 99.0996 158.74 99.1465 159.76H97.6084C97.5615 159.145 97.3271 158.641 96.9053 158.248C96.4893 157.85 95.9736 157.65 95.3584 157.65C94.5322 157.65 93.8906 157.949 93.4336 158.547C92.9824 159.139 92.7568 159.997 92.7568 161.122V161.43C92.7568 162.525 92.9824 163.369 93.4336 163.961C93.8848 164.553 94.5293 164.849 95.3672 164.849ZM100.544 161.157C100.544 160.226 100.726 159.388 101.089 158.644C101.458 157.899 101.968 157.325 102.618 156.921C103.274 156.517 104.021 156.314 104.859 156.314C106.154 156.314 107.2 156.763 107.997 157.659C108.8 158.556 109.201 159.748 109.201 161.236V161.351C109.201 162.276 109.022 163.108 108.665 163.847C108.313 164.579 107.807 165.15 107.145 165.561C106.488 165.971 105.732 166.176 104.877 166.176C103.588 166.176 102.542 165.728 101.739 164.831C100.942 163.935 100.544 162.748 100.544 161.271V161.157ZM102.179 161.351C102.179 162.405 102.422 163.252 102.908 163.891C103.4 164.529 104.057 164.849 104.877 164.849C105.703 164.849 106.359 164.526 106.846 163.882C107.332 163.231 107.575 162.323 107.575 161.157C107.575 160.114 107.326 159.271 106.828 158.626C106.336 157.976 105.68 157.65 104.859 157.65C104.057 157.65 103.409 157.97 102.917 158.608C102.425 159.247 102.179 160.161 102.179 161.351ZM117.111 165.06C116.479 165.804 115.55 166.176 114.325 166.176C113.312 166.176 112.538 165.883 112.005 165.297C111.478 164.705 111.211 163.832 111.205 162.678V156.49H112.831V162.634C112.831 164.075 113.417 164.796 114.589 164.796C115.831 164.796 116.657 164.333 117.067 163.407V156.49H118.693V166H117.146L117.111 165.06ZM122.938 166H121.312V152.5H122.938V166ZM125.153 161.166C125.153 159.707 125.499 158.535 126.19 157.65C126.882 156.76 127.787 156.314 128.906 156.314C130.02 156.314 130.901 156.695 131.552 157.457V152.5H133.178V166H131.684L131.604 164.98C130.954 165.777 130.049 166.176 128.889 166.176C127.787 166.176 126.888 165.725 126.19 164.822C125.499 163.92 125.153 162.742 125.153 161.289V161.166ZM126.779 161.351C126.779 162.429 127.002 163.272 127.447 163.882C127.893 164.491 128.508 164.796 129.293 164.796C130.324 164.796 131.077 164.333 131.552 163.407V159.039C131.065 158.143 130.318 157.694 129.311 157.694C128.514 157.694 127.893 158.002 127.447 158.617C127.002 159.232 126.779 160.144 126.779 161.351ZM137.247 156.49L137.3 157.686C138.026 156.771 138.976 156.314 140.147 156.314C142.157 156.314 143.171 157.448 143.188 159.716V166H141.562V159.707C141.557 159.021 141.398 158.515 141.088 158.187C140.783 157.858 140.306 157.694 139.655 157.694C139.128 157.694 138.665 157.835 138.267 158.116C137.868 158.397 137.558 158.767 137.335 159.224V166H135.709V156.49H137.247ZM145.052 156.807L144.129 156.174C144.674 155.412 144.955 154.609 144.973 153.766V152.5H146.581V153.643C146.575 154.229 146.429 154.814 146.142 155.4C145.86 155.98 145.497 156.449 145.052 156.807ZM150.747 154.188V156.49H152.522V157.747H150.747V163.645C150.747 164.025 150.826 164.312 150.984 164.506C151.143 164.693 151.412 164.787 151.793 164.787C151.98 164.787 152.238 164.752 152.566 164.682V166C152.139 166.117 151.723 166.176 151.318 166.176C150.592 166.176 150.044 165.956 149.675 165.517C149.306 165.077 149.121 164.453 149.121 163.645V157.747H147.39V156.49H149.121V154.188H150.747ZM159.694 166V157.747H158.191V156.49H159.694V155.515C159.694 154.495 159.967 153.707 160.512 153.15C161.057 152.594 161.827 152.315 162.823 152.315C163.198 152.315 163.57 152.365 163.939 152.465L163.852 153.783C163.576 153.73 163.283 153.704 162.973 153.704C162.445 153.704 162.038 153.859 161.751 154.17C161.464 154.475 161.32 154.914 161.32 155.488V156.49H163.351V157.747H161.32V166H159.694ZM166.919 166H165.293V156.49H166.919V166ZM165.161 153.968C165.161 153.704 165.24 153.481 165.398 153.3C165.562 153.118 165.803 153.027 166.119 153.027C166.436 153.027 166.676 153.118 166.84 153.3C167.004 153.481 167.086 153.704 167.086 153.968C167.086 154.231 167.004 154.451 166.84 154.627C166.676 154.803 166.436 154.891 166.119 154.891C165.803 154.891 165.562 154.803 165.398 154.627C165.24 154.451 165.161 154.231 165.161 153.968ZM171.067 156.49L171.12 157.686C171.847 156.771 172.796 156.314 173.968 156.314C175.978 156.314 176.991 157.448 177.009 159.716V166H175.383V159.707C175.377 159.021 175.219 158.515 174.908 158.187C174.604 157.858 174.126 157.694 173.476 157.694C172.948 157.694 172.485 157.835 172.087 158.116C171.688 158.397 171.378 158.767 171.155 159.224V166H169.529V156.49H171.067ZM179.065 161.166C179.065 159.707 179.411 158.535 180.103 157.65C180.794 156.76 181.699 156.314 182.818 156.314C183.932 156.314 184.813 156.695 185.464 157.457V152.5H187.09V166H185.596L185.517 164.98C184.866 165.777 183.961 166.176 182.801 166.176C181.699 166.176 180.8 165.725 180.103 164.822C179.411 163.92 179.065 162.742 179.065 161.289V161.166ZM180.691 161.351C180.691 162.429 180.914 163.272 181.359 163.882C181.805 164.491 182.42 164.796 183.205 164.796C184.236 164.796 184.989 164.333 185.464 163.407V159.039C184.978 158.143 184.23 157.694 183.223 157.694C182.426 157.694 181.805 158.002 181.359 158.617C180.914 159.232 180.691 160.144 180.691 161.351ZM199.957 166C199.863 165.812 199.787 165.479 199.729 164.998C198.973 165.783 198.07 166.176 197.021 166.176C196.084 166.176 195.313 165.912 194.71 165.385C194.112 164.852 193.813 164.178 193.813 163.363C193.813 162.373 194.188 161.605 194.938 161.061C195.694 160.51 196.755 160.234 198.12 160.234H199.702V159.487C199.702 158.919 199.532 158.468 199.192 158.134C198.853 157.794 198.352 157.624 197.689 157.624C197.109 157.624 196.623 157.771 196.23 158.063C195.838 158.356 195.642 158.711 195.642 159.127H194.007C194.007 158.652 194.174 158.195 194.508 157.756C194.848 157.311 195.305 156.959 195.879 156.701C196.459 156.443 197.095 156.314 197.786 156.314C198.882 156.314 199.74 156.59 200.361 157.141C200.982 157.686 201.305 158.438 201.328 159.399V163.776C201.328 164.649 201.439 165.344 201.662 165.859V166H199.957ZM197.259 164.761C197.769 164.761 198.252 164.629 198.709 164.365C199.166 164.102 199.497 163.759 199.702 163.337V161.386H198.428C196.436 161.386 195.439 161.969 195.439 163.135C195.439 163.645 195.609 164.043 195.949 164.33C196.289 164.617 196.726 164.761 197.259 164.761ZM205.415 156.49L205.468 157.686C206.194 156.771 207.144 156.314 208.315 156.314C210.325 156.314 211.339 157.448 211.356 159.716V166H209.73V159.707C209.725 159.021 209.566 158.515 209.256 158.187C208.951 157.858 208.474 157.694 207.823 157.694C207.296 157.694 206.833 157.835 206.435 158.116C206.036 158.397 205.726 158.767 205.503 159.224V166H203.877V156.49H205.415ZM216.92 163.618L219.135 156.49H220.875L217.052 167.468C216.46 169.05 215.52 169.841 214.23 169.841L213.923 169.814L213.316 169.7V168.382L213.756 168.417C214.307 168.417 214.734 168.306 215.039 168.083C215.35 167.86 215.604 167.453 215.804 166.861L216.164 165.895L212.771 156.49H214.547L216.92 163.618ZM228.328 156.49L228.372 157.545C229.069 156.725 230.01 156.314 231.193 156.314C232.523 156.314 233.429 156.824 233.909 157.844C234.226 157.387 234.636 157.018 235.14 156.736C235.649 156.455 236.25 156.314 236.941 156.314C239.027 156.314 240.088 157.419 240.123 159.628V166H238.497V159.725C238.497 159.045 238.342 158.538 238.031 158.204C237.721 157.864 237.199 157.694 236.467 157.694C235.863 157.694 235.362 157.876 234.964 158.239C234.565 158.597 234.334 159.08 234.27 159.689V166H232.635V159.769C232.635 158.386 231.958 157.694 230.604 157.694C229.538 157.694 228.809 158.148 228.416 159.057V166H226.79V156.49H228.328ZM248.455 166C248.361 165.812 248.285 165.479 248.227 164.998C247.471 165.783 246.568 166.176 245.52 166.176C244.582 166.176 243.812 165.912 243.208 165.385C242.61 164.852 242.312 164.178 242.312 163.363C242.312 162.373 242.687 161.605 243.437 161.061C244.192 160.51 245.253 160.234 246.618 160.234H248.2V159.487C248.2 158.919 248.03 158.468 247.69 158.134C247.351 157.794 246.85 157.624 246.188 157.624C245.607 157.624 245.121 157.771 244.729 158.063C244.336 158.356 244.14 158.711 244.14 159.127H242.505C242.505 158.652 242.672 158.195 243.006 157.756C243.346 157.311 243.803 156.959 244.377 156.701C244.957 156.443 245.593 156.314 246.284 156.314C247.38 156.314 248.238 156.59 248.859 157.141C249.48 157.686 249.803 158.438 249.826 159.399V163.776C249.826 164.649 249.938 165.344 250.16 165.859V166H248.455ZM245.757 164.761C246.267 164.761 246.75 164.629 247.207 164.365C247.664 164.102 247.995 163.759 248.2 163.337V161.386H246.926C244.934 161.386 243.938 161.969 243.938 163.135C243.938 163.645 244.107 164.043 244.447 164.33C244.787 164.617 245.224 164.761 245.757 164.761ZM254.581 154.188V156.49H256.356V157.747H254.581V163.645C254.581 164.025 254.66 164.312 254.818 164.506C254.977 164.693 255.246 164.787 255.627 164.787C255.814 164.787 256.072 164.752 256.4 164.682V166C255.973 166.117 255.557 166.176 255.152 166.176C254.426 166.176 253.878 165.956 253.509 165.517C253.14 165.077 252.955 164.453 252.955 163.645V157.747H251.224V156.49H252.955V154.188H254.581ZM262.078 164.849C262.658 164.849 263.165 164.673 263.599 164.321C264.032 163.97 264.272 163.53 264.319 163.003H265.857C265.828 163.548 265.641 164.066 265.295 164.559C264.949 165.051 264.486 165.443 263.906 165.736C263.332 166.029 262.723 166.176 262.078 166.176C260.783 166.176 259.752 165.745 258.984 164.884C258.223 164.017 257.842 162.833 257.842 161.333V161.061C257.842 160.135 258.012 159.312 258.352 158.591C258.691 157.87 259.178 157.311 259.811 156.912C260.449 156.514 261.202 156.314 262.069 156.314C263.136 156.314 264.021 156.634 264.724 157.272C265.433 157.911 265.811 158.74 265.857 159.76H264.319C264.272 159.145 264.038 158.641 263.616 158.248C263.2 157.85 262.685 157.65 262.069 157.65C261.243 157.65 260.602 157.949 260.145 158.547C259.693 159.139 259.468 159.997 259.468 161.122V161.43C259.468 162.525 259.693 163.369 260.145 163.961C260.596 164.553 261.24 164.849 262.078 164.849ZM269.312 157.642C270.032 156.757 270.97 156.314 272.124 156.314C274.134 156.314 275.147 157.448 275.165 159.716V166H273.539V159.707C273.533 159.021 273.375 158.515 273.064 158.187C272.76 157.858 272.282 157.694 271.632 157.694C271.104 157.694 270.642 157.835 270.243 158.116C269.845 158.397 269.534 158.767 269.312 159.224V166H267.686V152.5H269.312V157.642ZM281.546 166.176C280.257 166.176 279.208 165.754 278.399 164.91C277.591 164.061 277.187 162.927 277.187 161.509V161.21C277.187 160.267 277.365 159.426 277.723 158.688C278.086 157.943 278.59 157.363 279.234 156.947C279.885 156.525 280.588 156.314 281.344 156.314C282.58 156.314 283.541 156.722 284.227 157.536C284.912 158.351 285.255 159.517 285.255 161.034V161.711H278.812C278.836 162.648 279.108 163.407 279.63 163.987C280.157 164.562 280.825 164.849 281.634 164.849C282.208 164.849 282.694 164.731 283.093 164.497C283.491 164.263 283.84 163.952 284.139 163.565L285.132 164.339C284.335 165.563 283.14 166.176 281.546 166.176ZM281.344 157.65C280.688 157.65 280.137 157.891 279.691 158.371C279.246 158.846 278.971 159.514 278.865 160.375H283.629V160.252C283.582 159.426 283.359 158.787 282.961 158.336C282.562 157.879 282.023 157.65 281.344 157.65ZM292.682 163.478C292.682 163.038 292.515 162.698 292.181 162.458C291.853 162.212 291.275 162.001 290.449 161.825C289.629 161.649 288.976 161.438 288.489 161.192C288.009 160.946 287.651 160.653 287.417 160.313C287.188 159.974 287.074 159.569 287.074 159.101C287.074 158.321 287.402 157.662 288.059 157.123C288.721 156.584 289.564 156.314 290.59 156.314C291.668 156.314 292.541 156.593 293.209 157.149C293.883 157.706 294.22 158.418 294.22 159.285H292.585C292.585 158.84 292.395 158.456 292.014 158.134C291.639 157.812 291.164 157.65 290.59 157.65C289.998 157.65 289.535 157.779 289.201 158.037C288.867 158.295 288.7 158.632 288.7 159.048C288.7 159.44 288.855 159.736 289.166 159.936C289.477 160.135 290.036 160.325 290.845 160.507C291.659 160.688 292.318 160.905 292.822 161.157C293.326 161.409 293.698 161.714 293.938 162.071C294.185 162.423 294.308 162.854 294.308 163.363C294.308 164.213 293.968 164.896 293.288 165.411C292.608 165.921 291.727 166.176 290.643 166.176C289.881 166.176 289.207 166.041 288.621 165.771C288.035 165.502 287.575 165.127 287.241 164.646C286.913 164.16 286.749 163.636 286.749 163.073H288.375C288.404 163.618 288.621 164.052 289.025 164.374C289.436 164.69 289.975 164.849 290.643 164.849C291.258 164.849 291.75 164.726 292.119 164.479C292.494 164.228 292.682 163.894 292.682 163.478ZM301.69 166V157.747H300.188V156.49H301.69V155.515C301.69 154.495 301.963 153.707 302.508 153.15C303.053 152.594 303.823 152.315 304.819 152.315C305.194 152.315 305.566 152.365 305.936 152.465L305.848 153.783C305.572 153.73 305.279 153.704 304.969 153.704C304.441 153.704 304.034 153.859 303.747 154.17C303.46 154.475 303.316 154.914 303.316 155.488V156.49H305.347V157.747H303.316V166H301.69ZM306.718 161.157C306.718 160.226 306.899 159.388 307.263 158.644C307.632 157.899 308.142 157.325 308.792 156.921C309.448 156.517 310.195 156.314 311.033 156.314C312.328 156.314 313.374 156.763 314.171 157.659C314.974 158.556 315.375 159.748 315.375 161.236V161.351C315.375 162.276 315.196 163.108 314.839 163.847C314.487 164.579 313.98 165.15 313.318 165.561C312.662 165.971 311.906 166.176 311.051 166.176C309.762 166.176 308.716 165.728 307.913 164.831C307.116 163.935 306.718 162.748 306.718 161.271V161.157ZM308.353 161.351C308.353 162.405 308.596 163.252 309.082 163.891C309.574 164.529 310.23 164.849 311.051 164.849C311.877 164.849 312.533 164.526 313.02 163.882C313.506 163.231 313.749 162.323 313.749 161.157C313.749 160.114 313.5 159.271 313.002 158.626C312.51 157.976 311.854 157.65 311.033 157.65C310.23 157.65 309.583 157.97 309.091 158.608C308.599 159.247 308.353 160.161 308.353 161.351ZM322.011 157.949C321.765 157.908 321.498 157.888 321.211 157.888C320.145 157.888 319.421 158.342 319.04 159.25V166H317.414V156.49H318.996L319.022 157.589C319.556 156.739 320.312 156.314 321.29 156.314C321.606 156.314 321.847 156.355 322.011 156.438V157.949ZM331.09 163.618L333.305 156.49H335.045L331.222 167.468C330.63 169.05 329.689 169.841 328.4 169.841L328.093 169.814L327.486 169.7V168.382L327.926 168.417C328.477 168.417 328.904 168.306 329.209 168.083C329.52 167.86 329.774 167.453 329.974 166.861L330.334 165.895L326.941 156.49H328.717L331.09 163.618ZM335.933 161.157C335.933 160.226 336.114 159.388 336.478 158.644C336.847 157.899 337.356 157.325 338.007 156.921C338.663 156.517 339.41 156.314 340.248 156.314C341.543 156.314 342.589 156.763 343.386 157.659C344.188 158.556 344.59 159.748 344.59 161.236V161.351C344.59 162.276 344.411 163.108 344.054 163.847C343.702 164.579 343.195 165.15 342.533 165.561C341.877 165.971 341.121 166.176 340.266 166.176C338.977 166.176 337.931 165.728 337.128 164.831C336.331 163.935 335.933 162.748 335.933 161.271V161.157ZM337.567 161.351C337.567 162.405 337.811 163.252 338.297 163.891C338.789 164.529 339.445 164.849 340.266 164.849C341.092 164.849 341.748 164.526 342.234 163.882C342.721 163.231 342.964 162.323 342.964 161.157C342.964 160.114 342.715 159.271 342.217 158.626C341.725 157.976 341.068 157.65 340.248 157.65C339.445 157.65 338.798 157.97 338.306 158.608C337.813 159.247 337.567 160.161 337.567 161.351ZM352.5 165.06C351.867 165.804 350.938 166.176 349.714 166.176C348.7 166.176 347.927 165.883 347.394 165.297C346.866 164.705 346.6 163.832 346.594 162.678V156.49H348.22V162.634C348.22 164.075 348.806 164.796 349.978 164.796C351.22 164.796 352.046 164.333 352.456 163.407V156.49H354.082V166H352.535L352.5 165.06ZM361.157 157.949C360.911 157.908 360.645 157.888 360.357 157.888C359.291 157.888 358.567 158.342 358.187 159.25V166H356.561V156.49H358.143L358.169 157.589C358.702 156.739 359.458 156.314 360.437 156.314C360.753 156.314 360.993 156.355 361.157 156.438V157.949ZM366.729 161.166C366.729 159.672 367.072 158.491 367.758 157.624C368.443 156.751 369.363 156.314 370.518 156.314C371.643 156.314 372.53 156.692 373.181 157.448L373.251 156.49H374.745V169.656H373.119V165.121C372.463 165.824 371.59 166.176 370.5 166.176C369.352 166.176 368.435 165.73 367.749 164.84C367.069 163.943 366.729 162.757 366.729 161.28V161.166ZM368.355 161.351C368.355 162.44 368.584 163.296 369.041 163.917C369.504 164.538 370.125 164.849 370.904 164.849C371.871 164.849 372.609 164.421 373.119 163.565V158.907C372.604 158.069 371.871 157.65 370.922 157.65C370.137 157.65 369.513 157.964 369.05 158.591C368.587 159.212 368.355 160.132 368.355 161.351ZM383.227 165.06C382.594 165.804 381.665 166.176 380.44 166.176C379.427 166.176 378.653 165.883 378.12 165.297C377.593 164.705 377.326 163.832 377.32 162.678V156.49H378.946V162.634C378.946 164.075 379.532 164.796 380.704 164.796C381.946 164.796 382.772 164.333 383.183 163.407V156.49H384.809V166H383.262L383.227 165.06ZM391.233 166.176C389.944 166.176 388.896 165.754 388.087 164.91C387.278 164.061 386.874 162.927 386.874 161.509V161.21C386.874 160.267 387.053 159.426 387.41 158.688C387.773 157.943 388.277 157.363 388.922 156.947C389.572 156.525 390.275 156.314 391.031 156.314C392.268 156.314 393.229 156.722 393.914 157.536C394.6 158.351 394.942 159.517 394.942 161.034V161.711H388.5C388.523 162.648 388.796 163.407 389.317 163.987C389.845 164.562 390.513 164.849 391.321 164.849C391.896 164.849 392.382 164.731 392.78 164.497C393.179 164.263 393.527 163.952 393.826 163.565L394.819 164.339C394.022 165.563 392.827 166.176 391.233 166.176ZM391.031 157.65C390.375 157.65 389.824 157.891 389.379 158.371C388.934 158.846 388.658 159.514 388.553 160.375H393.316V160.252C393.27 159.426 393.047 158.787 392.648 158.336C392.25 157.879 391.711 157.65 391.031 157.65ZM401.429 157.949C401.183 157.908 400.916 157.888 400.629 157.888C399.562 157.888 398.839 158.342 398.458 159.25V166H396.832V156.49H398.414L398.44 157.589C398.974 156.739 399.729 156.314 400.708 156.314C401.024 156.314 401.265 156.355 401.429 156.438V157.949ZM406.201 163.618L408.416 156.49H410.156L406.333 167.468C405.741 169.05 404.801 169.841 403.512 169.841L403.204 169.814L402.598 169.7V168.382L403.037 168.417C403.588 168.417 404.016 168.306 404.32 168.083C404.631 167.86 404.886 167.453 405.085 166.861L405.445 165.895L402.053 156.49H403.828L406.201 163.618Z" fill="#5A5A89"/>
</svg>
